<mxfile host="Electron" agent="Mozilla/5.0 (Windows NT 10.0; Win64; x64) AppleWebKit/537.36 (KHTML, like Gecko) draw.io/24.7.8 Chrome/128.0.6613.36 Electron/32.0.1 Safari/537.36" version="24.7.8">
  <diagram name="Page-1" id="xnrcBPrq-xYV-1Iximej">
    <mxGraphModel dx="2524" dy="884" grid="1" gridSize="10" guides="1" tooltips="1" connect="1" arrows="1" fold="1" page="1" pageScale="1" pageWidth="850" pageHeight="1100" math="0" shadow="0">
      <root>
        <mxCell id="0" />
        <mxCell id="1" parent="0" />
        <object label="01_T2_10" link="https://github.com/VAC4EU/ROC18_Objective_2/blob/main/p_steps/01_t2_10_create_persons.R" linkTarget="_blank" shape="oval" id="yJT84olHIid9umdN5sDE-1">
          <mxCell style="ellipse;html=1;whiteSpace=wrap" linkTarget="_blank" vertex="1" parent="1">
            <mxGeometry x="1140" y="100" width="80" height="80" as="geometry" />
          </mxCell>
        </object>
        <object label="01_T2_20" link="https://github.com/VAC4EU/ROC18_Objective_2/blob/main/p_steps/01_t2_20_apply_createspells.R" linkTarget="_blank" shape="oval" id="yJT84olHIid9umdN5sDE-2">
          <mxCell style="ellipse;html=1;whiteSpace=wrap" linkTarget="_blank" vertex="1" parent="1">
            <mxGeometry x="320" y="100" width="80" height="80" as="geometry" />
          </mxCell>
        </object>
        <object label="01_T2_31" link="https://github.com/VAC4EU/ROC18_Objective_2/blob/main/p_steps/01_t2_31_createconceptsetdatasets.R" linkTarget="_blank" shape="oval" id="yJT84olHIid9umdN5sDE-3">
          <mxCell style="ellipse;html=1;whiteSpace=wrap" linkTarget="_blank" vertex="1" parent="1">
            <mxGeometry x="320" y="300" width="80" height="80" as="geometry" />
          </mxCell>
        </object>
        <object label="01_T2_40" link="https://github.com/VAC4EU/ROC18_Objective_2/blob/main/p_steps/01_t2_40_clean_vaccines.R" linkTarget="_blank" shape="oval" id="yJT84olHIid9umdN5sDE-6">
          <mxCell style="ellipse;html=1;whiteSpace=wrap" linkTarget="_blank" vertex="1" parent="1">
            <mxGeometry x="520" y="300" width="80" height="80" as="geometry" />
          </mxCell>
        </object>
        <object label="01_T2_41" link="https://github.com/VAC4EU/ROC18_Objective_2/blob/main/p_steps/01_t2_41_apply_criteria_for_doses.R" linkTarget="_blank" shape="oval" id="yJT84olHIid9umdN5sDE-7">
          <mxCell style="ellipse;html=1;whiteSpace=wrap" linkTarget="_blank" vertex="1" parent="1">
            <mxGeometry x="820" y="300" width="80" height="80" as="geometry" />
          </mxCell>
        </object>
        <object label="01_T2_42" link="https://github.com/VAC4EU/ROC18_Objective_2/blob/main/p_steps/01_t2_42_clean_all_vaccines.R" linkTarget="_blank" shape="oval" id="yJT84olHIid9umdN5sDE-8">
          <mxCell style="ellipse;html=1;whiteSpace=wrap" linkTarget="_blank" vertex="1" parent="1">
            <mxGeometry x="520" y="500" width="80" height="80" as="geometry" />
          </mxCell>
        </object>
        <object label="01_T2_43" link="https://github.com/VAC4EU/ROC18_Objective_2/blob/main/p_steps/01_t2_43_curate_all_vaccines.R" linkTarget="_blank" shape="oval" id="yJT84olHIid9umdN5sDE-9">
          <mxCell style="ellipse;html=1;whiteSpace=wrap" linkTarget="_blank" vertex="1" parent="1">
            <mxGeometry x="920" y="500" width="80" height="80" as="geometry" />
          </mxCell>
        </object>
        <object label="01_T2_50" link="https://github.com/VAC4EU/ROC18_Objective_2/blob/main/p_steps/01_t2_50_clean_spells.R" linkTarget="_blank" shape="oval" id="yJT84olHIid9umdN5sDE-10">
          <mxCell style="ellipse;html=1;whiteSpace=wrap" linkTarget="_blank" vertex="1" parent="1">
            <mxGeometry x="1120" y="300" width="80" height="80" as="geometry" />
          </mxCell>
        </object>
        <object label="01_T2_60" link="https://github.com/VAC4EU/ROC18_Objective_2/blob/main/p_steps/01_t2_60_selection_criteria_from_person_to_source_population.R" linkTarget="_blank" shape="oval" id="yJT84olHIid9umdN5sDE-11">
          <mxCell style="ellipse;html=1;whiteSpace=wrap" linkTarget="_blank" vertex="1" parent="1">
            <mxGeometry x="1220" y="500" width="80" height="80" as="geometry" />
          </mxCell>
        </object>
        <object label="02_T3_10" link="https://github.com/VAC4EU/ROC18_Objective_2/blob/main/p_steps/02_t3_10_create_source_population.R" linkTarget="_blank" shape="oval" id="yJT84olHIid9umdN5sDE-12">
          <mxCell style="ellipse;html=1;whiteSpace=wrap" linkTarget="_blank" vertex="1" parent="1">
            <mxGeometry x="1220" y="700" width="80" height="80" as="geometry" />
          </mxCell>
        </object>
        <object label="03_T2_10" link="https://github.com/VAC4EU/ROC18_Objective_2/blob/main/p_steps/03_t2_10_create_cohort.R" linkTarget="_blank" shape="oval" id="yJT84olHIid9umdN5sDE-13">
          <mxCell style="ellipse;html=1;whiteSpace=wrap" linkTarget="_blank" vertex="1" parent="1">
            <mxGeometry x="320" y="900" width="80" height="80" as="geometry" />
          </mxCell>
        </object>
        <object label="03_T2_20" link="https://github.com/VAC4EU/ROC18_Objective_2/blob/main/p_steps/03_t2_20_create_components_flares.R" linkTarget="_blank" shape="oval" id="yJT84olHIid9umdN5sDE-14">
          <mxCell style="ellipse;html=1;whiteSpace=wrap" linkTarget="_blank" vertex="1" parent="1">
            <mxGeometry x="520" y="900" width="80" height="80" as="geometry" />
          </mxCell>
        </object>
        <object label="03_T2_30" link="https://github.com/VAC4EU/ROC18_Objective_2/blob/main/p_steps/03_t2_30_create_dates_flares.R" linkTarget="_blank" shape="oval" id="yJT84olHIid9umdN5sDE-15">
          <mxCell style="ellipse;html=1;whiteSpace=wrap" linkTarget="_blank" vertex="1" parent="1">
            <mxGeometry x="720" y="900" width="80" height="80" as="geometry" />
          </mxCell>
        </object>
        <object label="03_T2_40" link="https://github.com/VAC4EU/ROC18_Objective_2/blob/main/p_steps/03_t2_40_create_td_datasets.R" linkTarget="_blank" shape="oval" id="yJT84olHIid9umdN5sDE-16">
          <mxCell style="ellipse;html=1;whiteSpace=wrap" linkTarget="_blank" vertex="1" parent="1">
            <mxGeometry x="920" y="900" width="80" height="80" as="geometry" />
          </mxCell>
        </object>
        <object label="03_T2_41" link="https://github.com/VAC4EU/ROC18_Objective_2/blob/main/p_steps/03_t2_41_create_td_covariates.R" linkTarget="_blank" shape="oval" id="yJT84olHIid9umdN5sDE-17">
          <mxCell style="ellipse;html=1;whiteSpace=wrap" linkTarget="_blank" vertex="1" parent="1">
            <mxGeometry x="1120" y="900" width="80" height="80" as="geometry" />
          </mxCell>
        </object>
        <object label="03_T2_50" link="https://github.com/VAC4EU/ROC18_Objective_2/blob/main/p_steps/03_t2_50_create_periods_followup.R" linkTarget="_blank" shape="oval" id="yJT84olHIid9umdN5sDE-18">
          <mxCell style="ellipse;html=1;whiteSpace=wrap" linkTarget="_blank" vertex="1" parent="1">
            <mxGeometry x="820" y="1100" width="80" height="80" as="geometry" />
          </mxCell>
        </object>
        <object label="04_T3_10" link="https://github.com/VAC4EU/ROC18_Objective_2/blob/main/p_steps/04_t3_10_create_persontime.R" linkTarget="_blank" shape="oval" id="yJT84olHIid9umdN5sDE-19">
          <mxCell style="ellipse;html=1;whiteSpace=wrap" linkTarget="_blank" vertex="1" parent="1">
            <mxGeometry x="1040" y="1300" width="80" height="80" as="geometry" />
          </mxCell>
        </object>
        <object label="04_T3_20" link="https://github.com/VAC4EU/ROC18_Objective_2/blob/main/p_steps/04_t3_20_create_analytical_dataset_km.R" linkTarget="_blank" shape="oval" id="yJT84olHIid9umdN5sDE-20">
          <mxCell style="ellipse;html=1;whiteSpace=wrap" linkTarget="_blank" vertex="1" parent="1">
            <mxGeometry x="1480" y="1300" width="80" height="80" as="geometry" />
          </mxCell>
        </object>
        <object label="04_T3_30" link="https://github.com/VAC4EU/ROC18_Objective_2/blob/main/p_steps/04_t3_30_create_components_dataset.R" linkTarget="_blank" shape="oval" id="yJT84olHIid9umdN5sDE-21">
          <mxCell style="ellipse;html=1;whiteSpace=wrap" linkTarget="_blank" vertex="1" parent="1">
            <mxGeometry x="680" y="1300" width="80" height="80" as="geometry" />
          </mxCell>
        </object>
        <object label="05_T4_10" link="https://github.com/VAC4EU/ROC18_Objective_2/blob/main/p_steps/05_t4_10_table_1_attrition.R" linkTarget="_blank" shape="oval" id="yJT84olHIid9umdN5sDE-22">
          <mxCell style="ellipse;html=1;whiteSpace=wrap" linkTarget="_blank" vertex="1" parent="1">
            <mxGeometry x="480" y="1500" width="80" height="80" as="geometry" />
          </mxCell>
        </object>
        <object label="05_T4_20" link="https://github.com/VAC4EU/ROC18_Objective_2/blob/main/p_steps/05_t4_20_table_2_cohort_characteristics.R" linkTarget="_blank" shape="oval" id="yJT84olHIid9umdN5sDE-23">
          <mxCell style="ellipse;html=1;whiteSpace=wrap" linkTarget="_blank" vertex="1" parent="1">
            <mxGeometry x="410" y="1700" width="80" height="80" as="geometry" />
          </mxCell>
        </object>
        <object label="05_T4_30" link="https://github.com/VAC4EU/ROC18_Objective_2/blob/main/p_steps/05_t4_30_table_3_covariates.R" linkTarget="_blank" shape="oval" id="yJT84olHIid9umdN5sDE-24">
          <mxCell style="ellipse;html=1;whiteSpace=wrap" linkTarget="_blank" vertex="1" parent="1">
            <mxGeometry x="570" y="1700" width="80" height="80" as="geometry" />
          </mxCell>
        </object>
        <object label="05_T4_40" link="https://github.com/VAC4EU/ROC18_Objective_2/blob/main/p_steps/05_t4_40_table_4_5_ir.R" linkTarget="_blank" shape="oval" id="yJT84olHIid9umdN5sDE-25">
          <mxCell style="ellipse;html=1;whiteSpace=wrap" linkTarget="_blank" vertex="1" parent="1">
            <mxGeometry x="1040" y="1500" width="80" height="80" as="geometry" />
          </mxCell>
        </object>
        <object label="05_T4_50" link="https://github.com/VAC4EU/ROC18_Objective_2/blob/main/p_steps/05_t4_50_table_6_components_flares_{immdis}.R" linkTarget="_blank" shape="oval" id="yJT84olHIid9umdN5sDE-26">
          <mxCell style="ellipse;html=1;whiteSpace=wrap" linkTarget="_blank" vertex="1" parent="1">
            <mxGeometry x="680" y="1500" width="80" height="80" as="geometry" />
          </mxCell>
        </object>
        <object label="05_T4_60" link="https://github.com/VAC4EU/ROC18_Objective_2/blob/main/p_steps/05_t4_60_km_analysis.R" linkTarget="_blank" shape="oval" id="yJT84olHIid9umdN5sDE-27">
          <mxCell style="ellipse;html=1;whiteSpace=wrap" linkTarget="_blank" vertex="1" parent="1">
            <mxGeometry x="1480" y="1500" width="80" height="80" as="geometry" />
          </mxCell>
        </object>
        <object label="05_T4_70" link="https://github.com/VAC4EU/ROC18_Objective_2/blob/main/p_steps/05_t4_70_component_stategy.R" linkTarget="_blank" shape="oval" id="yJT84olHIid9umdN5sDE-28">
          <mxCell style="ellipse;html=1;whiteSpace=wrap" linkTarget="_blank" vertex="1" parent="1">
            <mxGeometry x="320" y="1500" width="80" height="80" as="geometry" />
          </mxCell>
        </object>
        <object label="D3_PERSONS" link="https://VAC4EU.github.io/ROC18_Objective_2/step_1/d3_persons" linkTarget="_blank" shape="oval" id="yJT84olHIid9umdN5sDE-29">
          <mxCell style="html=1;rounded=0;whiteSpace=wrap;fillColor=#ffff88;strokeColor=#36393d" linkTarget="_blank" vertex="1" parent="1">
            <mxGeometry x="1200" y="200" width="120" height="60" as="geometry" />
          </mxCell>
        </object>
        <object label="D3_events_DEATH" link="https://VAC4EU.github.io/ROC18_Objective_2/step_1/d3_events_death" linkTarget="_blank" shape="oval" id="yJT84olHIid9umdN5sDE-30">
          <mxCell style="html=1;rounded=0;whiteSpace=wrap;fillColor=#ffff88;strokeColor=#36393d" linkTarget="_blank" vertex="1" parent="1">
            <mxGeometry x="1040" y="200" width="120" height="60" as="geometry" />
          </mxCell>
        </object>
        <object label="D3_output_spells_category" link="https://VAC4EU.github.io/ROC18_Objective_2/step_1/d3_output_spells_category" linkTarget="_blank" shape="oval" id="yJT84olHIid9umdN5sDE-31">
          <mxCell style="html=1;rounded=0;whiteSpace=wrap;fillColor=#ffff88;strokeColor=#36393d" linkTarget="_blank" vertex="1" parent="1">
            <mxGeometry x="300" y="200" width="120" height="60" as="geometry" />
          </mxCell>
        </object>
        <object label="conceptsetdataset" link="https://VAC4EU.github.io/ROC18_Objective_2/step_1/conceptsetdataset" linkTarget="_blank" shape="oval" id="yJT84olHIid9umdN5sDE-32">
          <mxCell style="html=1;rounded=0;whiteSpace=wrap;fillColor=#ffff88;strokeColor=#36393d" linkTarget="_blank" vertex="1" parent="1">
            <mxGeometry x="300" y="400" width="120" height="60" as="geometry" />
          </mxCell>
        </object>
        <object label="D3_clean_vaccines" link="https://VAC4EU.github.io/ROC18_Objective_2/step_1/d3_clean_vaccines" linkTarget="_blank" shape="oval" id="yJT84olHIid9umdN5sDE-35">
          <mxCell style="html=1;rounded=0;whiteSpace=wrap;fillColor=#ffff88;strokeColor=#36393d" linkTarget="_blank" vertex="1" parent="1">
            <mxGeometry x="500" y="400" width="120" height="60" as="geometry" />
          </mxCell>
        </object>
        <object label="D3_vaccines_curated" link="https://VAC4EU.github.io/ROC18_Objective_2/step_1/d3_vaccines_curated" linkTarget="_blank" shape="oval" id="yJT84olHIid9umdN5sDE-36">
          <mxCell style="html=1;rounded=0;whiteSpace=wrap;fillColor=#ffff88;strokeColor=#36393d" linkTarget="_blank" vertex="1" parent="1">
            <mxGeometry x="900" y="400" width="120" height="60" as="geometry" />
          </mxCell>
        </object>
        <object label="D5_Flowchart_criteria_for_doses" link="https://VAC4EU.github.io/ROC18_Objective_2/step_1/d5_flowchart_criteria_for_doses" linkTarget="_blank" shape="oval" id="yJT84olHIid9umdN5sDE-37">
          <mxCell style="html=1;rounded=0;whiteSpace=wrap;fillColor=#ffff88;strokeColor=#36393d" linkTarget="_blank" vertex="1" parent="1">
            <mxGeometry x="700" y="400" width="120" height="60" as="geometry" />
          </mxCell>
        </object>
        <object label="D3_clean_all_vaccines" link="https://VAC4EU.github.io/ROC18_Objective_2/step_1/d3_clean_all_vaccines" linkTarget="_blank" shape="oval" id="yJT84olHIid9umdN5sDE-38">
          <mxCell style="html=1;rounded=0;whiteSpace=wrap;fillColor=#ffff88;strokeColor=#36393d" linkTarget="_blank" vertex="1" parent="1">
            <mxGeometry x="500" y="600" width="120" height="60" as="geometry" />
          </mxCell>
        </object>
        <object label="D3_all_vaccines_curated" link="https://VAC4EU.github.io/ROC18_Objective_2/step_1/d3_all_vaccines_curated" linkTarget="_blank" shape="oval" id="yJT84olHIid9umdN5sDE-39">
          <mxCell style="html=1;rounded=0;whiteSpace=wrap;fillColor=#ffff88;strokeColor=#36393d" linkTarget="_blank" vertex="1" parent="1">
            <mxGeometry x="800" y="600" width="120" height="60" as="geometry" />
          </mxCell>
        </object>
        <object label="D5_Flowchart_criteria_for_all_vaccines" link="https://VAC4EU.github.io/ROC18_Objective_2/step_1/d5_flowchart_criteria_for_all_vaccines" linkTarget="_blank" shape="oval" id="yJT84olHIid9umdN5sDE-40">
          <mxCell style="html=1;rounded=0;whiteSpace=wrap;fillColor=#ffff88;strokeColor=#36393d" linkTarget="_blank" vertex="1" parent="1">
            <mxGeometry x="1000" y="600" width="120" height="60" as="geometry" />
          </mxCell>
        </object>
        <object label="D3_clean_spells" link="https://VAC4EU.github.io/ROC18_Objective_2/step_1/d3_clean_spells" linkTarget="_blank" shape="oval" id="yJT84olHIid9umdN5sDE-41">
          <mxCell style="html=1;rounded=0;whiteSpace=wrap;fillColor=#ffff88;strokeColor=#36393d" linkTarget="_blank" vertex="1" parent="1">
            <mxGeometry x="1100" y="400" width="120" height="60" as="geometry" />
          </mxCell>
        </object>
        <object label="D3_selection_criteria_from_PERSONS_to_source_population" link="https://VAC4EU.github.io/ROC18_Objective_2/step_1/d3_selection_criteria_from_persons_to_source_population" linkTarget="_blank" shape="oval" id="yJT84olHIid9umdN5sDE-42">
          <mxCell style="html=1;rounded=0;whiteSpace=wrap;fillColor=#ffff88;strokeColor=#36393d" linkTarget="_blank" vertex="1" parent="1">
            <mxGeometry x="1200" y="600" width="120" height="60" as="geometry" />
          </mxCell>
        </object>
        <object label="D4_source_population" link="https://VAC4EU.github.io/ROC18_Objective_2/step_2/d4_source_population" linkTarget="_blank" shape="oval" id="yJT84olHIid9umdN5sDE-43">
          <mxCell style="html=1;rounded=0;whiteSpace=wrap;fillColor=#ffff88;strokeColor=#36393d" linkTarget="_blank" vertex="1" parent="1">
            <mxGeometry x="1100" y="800" width="120" height="60" as="geometry" />
          </mxCell>
        </object>
        <object label="D5_Flowchart_exclusion_criteria" link="https://VAC4EU.github.io/ROC18_Objective_2/step_2/d5_flowchart_exclusion_criteria" linkTarget="_blank" shape="oval" id="yJT84olHIid9umdN5sDE-44">
          <mxCell style="html=1;rounded=0;whiteSpace=wrap;fillColor=#ffff88;strokeColor=#36393d" linkTarget="_blank" vertex="1" parent="1">
            <mxGeometry x="1300" y="800" width="120" height="60" as="geometry" />
          </mxCell>
        </object>
        <object label="D3_cohort_{ImmDis}" link="https://VAC4EU.github.io/ROC18_Objective_2/step_3/d3_cohort_{immdis}" linkTarget="_blank" shape="oval" id="yJT84olHIid9umdN5sDE-45">
          <mxCell style="html=1;rounded=0;whiteSpace=wrap;fillColor=#ffff88;strokeColor=#36393d" linkTarget="_blank" vertex="1" parent="1">
            <mxGeometry x="300" y="1000" width="120" height="60" as="geometry" />
          </mxCell>
        </object>
        <object label="D3_components_flare_TD_{ImmDis}" link="https://VAC4EU.github.io/ROC18_Objective_2/step_3/d3_components_flare_td_{immdis}" linkTarget="_blank" shape="oval" id="yJT84olHIid9umdN5sDE-46">
          <mxCell style="html=1;rounded=0;whiteSpace=wrap;fillColor=#ffff88;strokeColor=#36393d" linkTarget="_blank" vertex="1" parent="1">
            <mxGeometry x="500" y="1000" width="120" height="60" as="geometry" />
          </mxCell>
        </object>
        <object label="D3_flares_{ImmDis}" link="https://VAC4EU.github.io/ROC18_Objective_2/step_3/d3_flares_{immdis}" linkTarget="_blank" shape="oval" id="yJT84olHIid9umdN5sDE-47">
          <mxCell style="html=1;rounded=0;whiteSpace=wrap;fillColor=#ffff88;strokeColor=#36393d" linkTarget="_blank" vertex="1" parent="1">
            <mxGeometry x="700" y="1000" width="120" height="60" as="geometry" />
          </mxCell>
        </object>
        <object label="D3_TD_condition" link="https://VAC4EU.github.io/ROC18_Objective_2/step_3/d3_td_condition" linkTarget="_blank" shape="oval" id="yJT84olHIid9umdN5sDE-48">
          <mxCell style="html=1;rounded=0;whiteSpace=wrap;fillColor=#ffff88;strokeColor=#36393d" linkTarget="_blank" vertex="1" parent="1">
            <mxGeometry x="900" y="1000" width="120" height="60" as="geometry" />
          </mxCell>
        </object>
        <object label="D3_TD_covariates_complete" link="https://VAC4EU.github.io/ROC18_Objective_2/step_3/d3_td_covariates_complete" linkTarget="_blank" shape="oval" id="yJT84olHIid9umdN5sDE-49">
          <mxCell style="html=1;rounded=0;whiteSpace=wrap;fillColor=#ffff88;strokeColor=#36393d" linkTarget="_blank" vertex="1" parent="1">
            <mxGeometry x="1100" y="1000" width="120" height="60" as="geometry" />
          </mxCell>
        </object>
        <object label="D3_followup_periods_in_cohort_{ImmDis}" link="https://VAC4EU.github.io/ROC18_Objective_2/step_3/d3_followup_periods_in_cohort_{immdis}" linkTarget="_blank" shape="oval" id="yJT84olHIid9umdN5sDE-50">
          <mxCell style="html=1;rounded=0;whiteSpace=wrap;fillColor=#ffff88;strokeColor=#36393d" linkTarget="_blank" vertex="1" parent="1">
            <mxGeometry x="800" y="1200" width="120" height="60" as="geometry" />
          </mxCell>
        </object>
        <object label="D4_persontime_{ImmDis}" link="https://VAC4EU.github.io/ROC18_Objective_2/step_4/d4_persontime_{immdis}" linkTarget="_blank" shape="oval" id="yJT84olHIid9umdN5sDE-51">
          <mxCell style="html=1;rounded=0;whiteSpace=wrap;fillColor=#ffff88;strokeColor=#36393d" linkTarget="_blank" vertex="1" parent="1">
            <mxGeometry x="1020" y="1400" width="120" height="60" as="geometry" />
          </mxCell>
        </object>
        <object label="D4_analytical_dataset_KM_{ImmDis}" link="https://VAC4EU.github.io/ROC18_Objective_2/step_4/d4_analytical_dataset_km_{immdis}" linkTarget="_blank" shape="oval" id="yJT84olHIid9umdN5sDE-52">
          <mxCell style="html=1;rounded=0;whiteSpace=wrap;fillColor=#ffff88;strokeColor=#36393d" linkTarget="_blank" vertex="1" parent="1">
            <mxGeometry x="1460" y="1400" width="120" height="60" as="geometry" />
          </mxCell>
        </object>
        <object label="D4_components_flare_{ImmDis}" link="https://VAC4EU.github.io/ROC18_Objective_2/step_4/d4_components_flare_{immdis}" linkTarget="_blank" shape="oval" id="yJT84olHIid9umdN5sDE-53">
          <mxCell style="html=1;rounded=0;whiteSpace=wrap;fillColor=#ffff88;strokeColor=#36393d" linkTarget="_blank" vertex="1" parent="1">
            <mxGeometry x="660" y="1400" width="120" height="60" as="geometry" />
          </mxCell>
        </object>
        <object label="D5_Table_1_Attrition_{ImmDis}" link="https://VAC4EU.github.io/ROC18_Objective_2/step_5/d5_table_1_attrition_{immdis}" linkTarget="_blank" shape="oval" id="yJT84olHIid9umdN5sDE-54">
          <mxCell style="html=1;rounded=0;whiteSpace=wrap;fillColor=#ffff88;strokeColor=#36393d" linkTarget="_blank" vertex="1" parent="1">
            <mxGeometry x="460" y="1600" width="120" height="60" as="geometry" />
          </mxCell>
        </object>
        <object label="D5_Table_2_Cohort_characteristics_{ImmDis}" link="https://VAC4EU.github.io/ROC18_Objective_2/step_5/d5_table_2_cohort_characteristics_{immdis}" linkTarget="_blank" shape="oval" id="yJT84olHIid9umdN5sDE-55">
          <mxCell style="html=1;rounded=0;whiteSpace=wrap;fillColor=#ffff88;strokeColor=#36393d" linkTarget="_blank" vertex="1" parent="1">
            <mxGeometry x="390" y="1800" width="120" height="60" as="geometry" />
          </mxCell>
        </object>
        <object label="D5_Table_3_Covariates_{ImmDis}" link="https://VAC4EU.github.io/ROC18_Objective_2/step_5/d5_table_3_covariates_{immdis}" linkTarget="_blank" shape="oval" id="yJT84olHIid9umdN5sDE-56">
          <mxCell style="html=1;rounded=0;whiteSpace=wrap;fillColor=#ffff88;strokeColor=#36393d" linkTarget="_blank" vertex="1" parent="1">
            <mxGeometry x="550" y="1800" width="120" height="60" as="geometry" />
          </mxCell>
        </object>
        <object label="D5_Table_4_IR_{ImmDis}" link="https://VAC4EU.github.io/ROC18_Objective_2/step_5/d5_table_4_ir_{immdis}" linkTarget="_blank" shape="oval" id="yJT84olHIid9umdN5sDE-57">
          <mxCell style="html=1;rounded=0;whiteSpace=wrap;fillColor=#ffff88;strokeColor=#36393d" linkTarget="_blank" vertex="1" parent="1">
            <mxGeometry x="860" y="1600" width="120" height="60" as="geometry" />
          </mxCell>
        </object>
        <object label="D5_Table_5_IR_{ImmDis}_{stratum}" link="https://VAC4EU.github.io/ROC18_Objective_2/step_5/d5_table_5_ir_{immdis}_{stratum}" linkTarget="_blank" shape="oval" id="yJT84olHIid9umdN5sDE-58">
          <mxCell style="html=1;rounded=0;whiteSpace=wrap;fillColor=#ffff88;strokeColor=#36393d" linkTarget="_blank" vertex="1" parent="1">
            <mxGeometry x="1020" y="1600" width="120" height="60" as="geometry" />
          </mxCell>
        </object>
        <object label="D5_Histogram_{ImmDis}" link="https://VAC4EU.github.io/ROC18_Objective_2/step_5/d5_histogram_{immdis}" linkTarget="_blank" shape="oval" id="yJT84olHIid9umdN5sDE-59">
          <mxCell style="html=1;rounded=0;whiteSpace=wrap;fillColor=#ffff88;strokeColor=#36393d" linkTarget="_blank" vertex="1" parent="1">
            <mxGeometry x="1180" y="1600" width="120" height="60" as="geometry" />
          </mxCell>
        </object>
        <object label="D5_Table_6_components_flares_{ImmDis}" link="https://VAC4EU.github.io/ROC18_Objective_2/step_5/d5_table_6_components_flares_{immdis}" linkTarget="_blank" shape="oval" id="yJT84olHIid9umdN5sDE-60">
          <mxCell style="html=1;rounded=0;whiteSpace=wrap;fillColor=#ffff88;strokeColor=#36393d" linkTarget="_blank" vertex="1" parent="1">
            <mxGeometry x="660" y="1600" width="120" height="60" as="geometry" />
          </mxCell>
        </object>
        <object label="D5_Table_7_cumulative_incidence_{ImmDis}" link="https://VAC4EU.github.io/ROC18_Objective_2/step_5/d5_table_7_cumulative_incidence_{immdis}" linkTarget="_blank" shape="oval" id="yJT84olHIid9umdN5sDE-61">
          <mxCell style="html=1;rounded=0;whiteSpace=wrap;fillColor=#ffff88;strokeColor=#36393d" linkTarget="_blank" vertex="1" parent="1">
            <mxGeometry x="1380" y="1600" width="120" height="60" as="geometry" />
          </mxCell>
        </object>
        <object label="D5_data_KM_figure_{ImmDis}" link="https://VAC4EU.github.io/ROC18_Objective_2/step_5/d5_data_km_figure_{immdis}" linkTarget="_blank" shape="oval" id="yJT84olHIid9umdN5sDE-62">
          <mxCell style="html=1;rounded=0;whiteSpace=wrap;fillColor=#ffff88;strokeColor=#36393d" linkTarget="_blank" vertex="1" parent="1">
            <mxGeometry x="1550" y="1600" width="120" height="60" as="geometry" />
          </mxCell>
        </object>
        <object label="D5_Table_8_components_{ImmDis}" link="https://VAC4EU.github.io/ROC18_Objective_2/step_5/d5_table_8_components_{immdis}" linkTarget="_blank" shape="oval" id="yJT84olHIid9umdN5sDE-63">
          <mxCell style="html=1;rounded=0;whiteSpace=wrap;fillColor=#ffff88;strokeColor=#36393d" linkTarget="_blank" vertex="1" parent="1">
            <mxGeometry x="300" y="1600" width="120" height="60" as="geometry" />
          </mxCell>
        </object>
        <object label="PERSONS" linkTarget="_blank" shape="oval" id="yJT84olHIid9umdN5sDE-64">
          <mxCell style="html=1;rounded=0;whiteSpace=wrap;fillColor=#ffff88;strokeColor=#36393d" linkTarget="_blank" vertex="1" parent="1">
            <mxGeometry width="120" height="60" as="geometry" />
          </mxCell>
        </object>
        <object label="OBSERVATION_PERIODS" linkTarget="_blank" shape="oval" id="yJT84olHIid9umdN5sDE-65">
          <mxCell style="html=1;rounded=0;whiteSpace=wrap;fillColor=#ffff88;strokeColor=#36393d" linkTarget="_blank" vertex="1" parent="1">
            <mxGeometry y="100" width="120" height="60" as="geometry" />
          </mxCell>
        </object>
        <object label="VACCINES" linkTarget="_blank" shape="oval" id="yJT84olHIid9umdN5sDE-66">
          <mxCell style="html=1;rounded=0;whiteSpace=wrap;fillColor=#ffff88;strokeColor=#36393d" linkTarget="_blank" vertex="1" parent="1">
            <mxGeometry y="200" width="120" height="60" as="geometry" />
          </mxCell>
        </object>
        <object label="MEDICINES" linkTarget="_blank" shape="oval" id="yJT84olHIid9umdN5sDE-67">
          <mxCell style="html=1;rounded=0;whiteSpace=wrap;fillColor=#ffff88;strokeColor=#36393d" linkTarget="_blank" vertex="1" parent="1">
            <mxGeometry y="300" width="120" height="60" as="geometry" />
          </mxCell>
        </object>
        <object label="EVENTS" linkTarget="_blank" shape="oval" id="yJT84olHIid9umdN5sDE-68">
          <mxCell style="html=1;rounded=0;whiteSpace=wrap;fillColor=#ffff88;strokeColor=#36393d" linkTarget="_blank" vertex="1" parent="1">
            <mxGeometry y="400" width="120" height="60" as="geometry" />
          </mxCell>
        </object>
        <object label="SURVEY_OBSERVATIONS" linkTarget="_blank" shape="oval" id="yJT84olHIid9umdN5sDE-69">
          <mxCell style="html=1;rounded=0;whiteSpace=wrap;fillColor=#ffff88;strokeColor=#36393d" linkTarget="_blank" vertex="1" parent="1">
            <mxGeometry y="500" width="120" height="60" as="geometry" />
          </mxCell>
        </object>
        <object label="MEDICAL_OBSERVATIONS" linkTarget="_blank" shape="oval" id="yJT84olHIid9umdN5sDE-70">
          <mxCell style="html=1;rounded=0;whiteSpace=wrap;fillColor=#ffff88;strokeColor=#36393d" linkTarget="_blank" vertex="1" parent="1">
            <mxGeometry y="600" width="120" height="60" as="geometry" />
          </mxCell>
        </object>
        <object tags="NA NA" id="yJT84olHIid9umdN5sDE-73">
          <mxCell edge="1" html="1" verticalAlign="bottom" startArrow="oval" startFill="1" endArrow="block" startSize="8" exitX="1" exitY="0.5" exitDx="0" exitDy="0" entryX="0" entryY="0.5" entryDx="0" entryDy="0" edgeStyle="orthogonalEdgeStyle" elbow="vertical" curved="1" rounded="0" parent="1" source="yJT84olHIid9umdN5sDE-64" target="yJT84olHIid9umdN5sDE-1">
            <mxGeometry width="60" relative="1" as="geometry" />
          </mxCell>
        </object>
        <object tags="NA NA" id="yJT84olHIid9umdN5sDE-74">
          <mxCell edge="1" html="1" verticalAlign="bottom" startArrow="oval" startFill="1" endArrow="block" startSize="8" exitX="1" exitY="0.5" exitDx="0" exitDy="0" entryX="0" entryY="0.5" entryDx="0" entryDy="0" edgeStyle="orthogonalEdgeStyle" elbow="vertical" curved="1" rounded="0" parent="1" source="yJT84olHIid9umdN5sDE-65" target="yJT84olHIid9umdN5sDE-1">
            <mxGeometry width="60" relative="1" as="geometry" />
          </mxCell>
        </object>
        <object tags="NA NA" id="yJT84olHIid9umdN5sDE-75">
          <mxCell edge="1" html="1" verticalAlign="bottom" startArrow="oval" startFill="1" endArrow="block" startSize="8" exitX="1" exitY="0.5" exitDx="0" exitDy="0" entryX="0" entryY="0.5" entryDx="0" entryDy="0" edgeStyle="orthogonalEdgeStyle" elbow="vertical" curved="1" rounded="0" parent="1" source="yJT84olHIid9umdN5sDE-65" target="yJT84olHIid9umdN5sDE-2">
            <mxGeometry width="60" relative="1" as="geometry" />
          </mxCell>
        </object>
        <object tags="NA NA" id="yJT84olHIid9umdN5sDE-76">
          <mxCell edge="1" html="1" verticalAlign="bottom" startArrow="oval" startFill="1" endArrow="block" startSize="8" exitX="1" exitY="0.5" exitDx="0" exitDy="0" entryX="0" entryY="0.5" entryDx="0" entryDy="0" edgeStyle="orthogonalEdgeStyle" elbow="vertical" curved="1" rounded="0" parent="1" source="yJT84olHIid9umdN5sDE-66" target="yJT84olHIid9umdN5sDE-3">
            <mxGeometry width="60" relative="1" as="geometry" />
          </mxCell>
        </object>
        <object tags="NA NA" id="yJT84olHIid9umdN5sDE-77">
          <mxCell edge="1" html="1" verticalAlign="bottom" startArrow="oval" startFill="1" endArrow="block" startSize="8" exitX="1" exitY="0.5" exitDx="0" exitDy="0" entryX="0" entryY="0.5" entryDx="0" entryDy="0" edgeStyle="orthogonalEdgeStyle" elbow="vertical" curved="1" rounded="0" parent="1" source="yJT84olHIid9umdN5sDE-67" target="yJT84olHIid9umdN5sDE-3">
            <mxGeometry width="60" relative="1" as="geometry" />
          </mxCell>
        </object>
        <object tags="NA NA" id="yJT84olHIid9umdN5sDE-78">
          <mxCell edge="1" html="1" verticalAlign="bottom" startArrow="oval" startFill="1" endArrow="block" startSize="8" exitX="1" exitY="0.5" exitDx="0" exitDy="0" entryX="0" entryY="0.5" entryDx="0" entryDy="0" edgeStyle="orthogonalEdgeStyle" elbow="vertical" curved="1" rounded="0" parent="1" source="yJT84olHIid9umdN5sDE-68" target="yJT84olHIid9umdN5sDE-3">
            <mxGeometry width="60" relative="1" as="geometry" />
          </mxCell>
        </object>
        <object tags="NA NA" id="yJT84olHIid9umdN5sDE-79">
          <mxCell edge="1" html="1" verticalAlign="bottom" startArrow="oval" startFill="1" endArrow="block" startSize="8" exitX="1" exitY="0.5" exitDx="0" exitDy="0" entryX="0" entryY="0.5" entryDx="0" entryDy="0" edgeStyle="orthogonalEdgeStyle" elbow="vertical" curved="1" rounded="0" parent="1" source="yJT84olHIid9umdN5sDE-69" target="yJT84olHIid9umdN5sDE-3">
            <mxGeometry width="60" relative="1" as="geometry" />
          </mxCell>
        </object>
        <object tags="NA NA" id="yJT84olHIid9umdN5sDE-80">
          <mxCell edge="1" html="1" verticalAlign="bottom" startArrow="oval" startFill="1" endArrow="block" startSize="8" exitX="1" exitY="0.5" exitDx="0" exitDy="0" entryX="0" entryY="0.5" entryDx="0" entryDy="0" edgeStyle="orthogonalEdgeStyle" elbow="vertical" curved="1" rounded="0" parent="1" source="yJT84olHIid9umdN5sDE-70" target="yJT84olHIid9umdN5sDE-3">
            <mxGeometry width="60" relative="1" as="geometry" />
          </mxCell>
        </object>
        <object tags="NA NA" id="yJT84olHIid9umdN5sDE-85">
          <mxCell edge="1" html="1" verticalAlign="bottom" startArrow="oval" startFill="1" endArrow="block" startSize="8" exitX="1" exitY="0.5" exitDx="0" exitDy="0" entryX="0" entryY="0.5" entryDx="0" entryDy="0" edgeStyle="orthogonalEdgeStyle" elbow="vertical" curved="1" rounded="0" parent="1" source="yJT84olHIid9umdN5sDE-1" target="yJT84olHIid9umdN5sDE-29">
            <mxGeometry width="60" relative="1" as="geometry" />
          </mxCell>
        </object>
        <object tags="NA NA" id="yJT84olHIid9umdN5sDE-86">
          <mxCell edge="1" html="1" verticalAlign="bottom" startArrow="oval" startFill="1" endArrow="block" startSize="8" exitX="1" exitY="0.5" exitDx="0" exitDy="0" entryX="0" entryY="0.5" entryDx="0" entryDy="0" edgeStyle="orthogonalEdgeStyle" elbow="vertical" curved="1" rounded="0" parent="1" source="yJT84olHIid9umdN5sDE-1" target="yJT84olHIid9umdN5sDE-30">
            <mxGeometry width="60" relative="1" as="geometry" />
          </mxCell>
        </object>
        <object tags="NA NA" id="yJT84olHIid9umdN5sDE-87">
          <mxCell edge="1" html="1" verticalAlign="bottom" startArrow="oval" startFill="1" endArrow="block" startSize="8" exitX="1" exitY="0.5" exitDx="0" exitDy="0" entryX="0" entryY="0.5" entryDx="0" entryDy="0" edgeStyle="orthogonalEdgeStyle" elbow="vertical" curved="1" rounded="0" parent="1" source="yJT84olHIid9umdN5sDE-2" target="yJT84olHIid9umdN5sDE-31">
            <mxGeometry width="60" relative="1" as="geometry" />
          </mxCell>
        </object>
        <object tags="NA NA" id="yJT84olHIid9umdN5sDE-88">
          <mxCell edge="1" html="1" verticalAlign="bottom" startArrow="oval" startFill="1" endArrow="block" startSize="8" exitX="1" exitY="0.5" exitDx="0" exitDy="0" entryX="0" entryY="0.5" entryDx="0" entryDy="0" edgeStyle="orthogonalEdgeStyle" elbow="vertical" curved="1" rounded="0" parent="1" source="yJT84olHIid9umdN5sDE-3" target="yJT84olHIid9umdN5sDE-32">
            <mxGeometry width="60" relative="1" as="geometry" />
          </mxCell>
        </object>
        <object tags="NA NA" id="yJT84olHIid9umdN5sDE-91">
          <mxCell edge="1" html="1" verticalAlign="bottom" startArrow="oval" startFill="1" endArrow="block" startSize="8" exitX="1" exitY="0.5" exitDx="0" exitDy="0" entryX="0" entryY="0.5" entryDx="0" entryDy="0" edgeStyle="orthogonalEdgeStyle" elbow="vertical" curved="1" rounded="0" parent="1" source="yJT84olHIid9umdN5sDE-6" target="yJT84olHIid9umdN5sDE-35">
            <mxGeometry width="60" relative="1" as="geometry" />
          </mxCell>
        </object>
        <object tags="NA NA" id="yJT84olHIid9umdN5sDE-92">
          <mxCell edge="1" html="1" verticalAlign="bottom" startArrow="oval" startFill="1" endArrow="block" startSize="8" exitX="1" exitY="0.5" exitDx="0" exitDy="0" entryX="0" entryY="0.5" entryDx="0" entryDy="0" edgeStyle="orthogonalEdgeStyle" elbow="vertical" curved="1" rounded="0" parent="1" source="yJT84olHIid9umdN5sDE-7" target="yJT84olHIid9umdN5sDE-36">
            <mxGeometry width="60" relative="1" as="geometry" />
          </mxCell>
        </object>
        <object tags="NA NA" id="yJT84olHIid9umdN5sDE-93">
          <mxCell edge="1" html="1" verticalAlign="bottom" startArrow="oval" startFill="1" endArrow="block" startSize="8" exitX="1" exitY="0.5" exitDx="0" exitDy="0" entryX="0" entryY="0.5" entryDx="0" entryDy="0" edgeStyle="orthogonalEdgeStyle" elbow="vertical" curved="1" rounded="0" parent="1" source="yJT84olHIid9umdN5sDE-7" target="yJT84olHIid9umdN5sDE-37">
            <mxGeometry width="60" relative="1" as="geometry" />
          </mxCell>
        </object>
        <object tags="NA NA" id="yJT84olHIid9umdN5sDE-94">
          <mxCell edge="1" html="1" verticalAlign="bottom" startArrow="oval" startFill="1" endArrow="block" startSize="8" exitX="1" exitY="0.5" exitDx="0" exitDy="0" entryX="0" entryY="0.5" entryDx="0" entryDy="0" edgeStyle="orthogonalEdgeStyle" elbow="vertical" curved="1" rounded="0" parent="1" source="yJT84olHIid9umdN5sDE-8" target="yJT84olHIid9umdN5sDE-38">
            <mxGeometry width="60" relative="1" as="geometry" />
          </mxCell>
        </object>
        <object tags="NA NA" id="yJT84olHIid9umdN5sDE-95">
          <mxCell edge="1" html="1" verticalAlign="bottom" startArrow="oval" startFill="1" endArrow="block" startSize="8" exitX="1" exitY="0.5" exitDx="0" exitDy="0" entryX="0" entryY="0.5" entryDx="0" entryDy="0" edgeStyle="orthogonalEdgeStyle" elbow="vertical" curved="1" rounded="0" parent="1" source="yJT84olHIid9umdN5sDE-9" target="yJT84olHIid9umdN5sDE-39">
            <mxGeometry width="60" relative="1" as="geometry" />
          </mxCell>
        </object>
        <object tags="NA NA" id="yJT84olHIid9umdN5sDE-96">
          <mxCell edge="1" html="1" verticalAlign="bottom" startArrow="oval" startFill="1" endArrow="block" startSize="8" exitX="1" exitY="0.5" exitDx="0" exitDy="0" entryX="0" entryY="0.5" entryDx="0" entryDy="0" edgeStyle="orthogonalEdgeStyle" elbow="vertical" curved="1" rounded="0" parent="1" source="yJT84olHIid9umdN5sDE-9" target="yJT84olHIid9umdN5sDE-40">
            <mxGeometry width="60" relative="1" as="geometry" />
          </mxCell>
        </object>
        <object tags="NA NA" id="yJT84olHIid9umdN5sDE-97">
          <mxCell edge="1" html="1" verticalAlign="bottom" startArrow="oval" startFill="1" endArrow="block" startSize="8" exitX="1" exitY="0.5" exitDx="0" exitDy="0" entryX="0" entryY="0.5" entryDx="0" entryDy="0" edgeStyle="orthogonalEdgeStyle" elbow="vertical" curved="1" rounded="0" parent="1" source="yJT84olHIid9umdN5sDE-10" target="yJT84olHIid9umdN5sDE-41">
            <mxGeometry width="60" relative="1" as="geometry" />
          </mxCell>
        </object>
        <object tags="NA NA" id="yJT84olHIid9umdN5sDE-98">
          <mxCell edge="1" html="1" verticalAlign="bottom" startArrow="oval" startFill="1" endArrow="block" startSize="8" exitX="1" exitY="0.5" exitDx="0" exitDy="0" entryX="0" entryY="0.5" entryDx="0" entryDy="0" edgeStyle="orthogonalEdgeStyle" elbow="vertical" curved="1" rounded="0" parent="1" source="yJT84olHIid9umdN5sDE-11" target="yJT84olHIid9umdN5sDE-42">
            <mxGeometry width="60" relative="1" as="geometry" />
          </mxCell>
        </object>
        <object tags="NA NA" id="yJT84olHIid9umdN5sDE-99">
          <mxCell edge="1" html="1" verticalAlign="bottom" startArrow="oval" startFill="1" endArrow="block" startSize="8" exitX="1" exitY="0.5" exitDx="0" exitDy="0" entryX="0" entryY="0.5" entryDx="0" entryDy="0" edgeStyle="orthogonalEdgeStyle" elbow="vertical" curved="1" rounded="0" parent="1" source="yJT84olHIid9umdN5sDE-12" target="yJT84olHIid9umdN5sDE-43">
            <mxGeometry width="60" relative="1" as="geometry" />
          </mxCell>
        </object>
        <object tags="NA NA" id="yJT84olHIid9umdN5sDE-100">
          <mxCell edge="1" html="1" verticalAlign="bottom" startArrow="oval" startFill="1" endArrow="block" startSize="8" exitX="1" exitY="0.5" exitDx="0" exitDy="0" entryX="0" entryY="0.5" entryDx="0" entryDy="0" edgeStyle="orthogonalEdgeStyle" elbow="vertical" curved="1" rounded="0" parent="1" source="yJT84olHIid9umdN5sDE-12" target="yJT84olHIid9umdN5sDE-44">
            <mxGeometry width="60" relative="1" as="geometry" />
          </mxCell>
        </object>
        <object tags="NA NA" id="yJT84olHIid9umdN5sDE-101">
          <mxCell edge="1" html="1" verticalAlign="bottom" startArrow="oval" startFill="1" endArrow="block" startSize="8" exitX="1" exitY="0.5" exitDx="0" exitDy="0" entryX="0" entryY="0.5" entryDx="0" entryDy="0" edgeStyle="orthogonalEdgeStyle" elbow="vertical" curved="1" rounded="0" parent="1" source="yJT84olHIid9umdN5sDE-13" target="yJT84olHIid9umdN5sDE-45">
            <mxGeometry width="60" relative="1" as="geometry" />
          </mxCell>
        </object>
        <object tags="NA NA" id="yJT84olHIid9umdN5sDE-102">
          <mxCell edge="1" html="1" verticalAlign="bottom" startArrow="oval" startFill="1" endArrow="block" startSize="8" exitX="1" exitY="0.5" exitDx="0" exitDy="0" entryX="0" entryY="0.5" entryDx="0" entryDy="0" edgeStyle="orthogonalEdgeStyle" elbow="vertical" curved="1" rounded="0" parent="1" source="yJT84olHIid9umdN5sDE-14" target="yJT84olHIid9umdN5sDE-46">
            <mxGeometry width="60" relative="1" as="geometry" />
          </mxCell>
        </object>
        <object tags="NA NA" id="yJT84olHIid9umdN5sDE-103">
          <mxCell edge="1" html="1" verticalAlign="bottom" startArrow="oval" startFill="1" endArrow="block" startSize="8" exitX="1" exitY="0.5" exitDx="0" exitDy="0" entryX="0" entryY="0.5" entryDx="0" entryDy="0" edgeStyle="orthogonalEdgeStyle" elbow="vertical" curved="1" rounded="0" parent="1" source="yJT84olHIid9umdN5sDE-15" target="yJT84olHIid9umdN5sDE-47">
            <mxGeometry width="60" relative="1" as="geometry" />
          </mxCell>
        </object>
        <object tags="NA NA" id="yJT84olHIid9umdN5sDE-104">
          <mxCell edge="1" html="1" verticalAlign="bottom" startArrow="oval" startFill="1" endArrow="block" startSize="8" exitX="1" exitY="0.5" exitDx="0" exitDy="0" entryX="0" entryY="0.5" entryDx="0" entryDy="0" edgeStyle="orthogonalEdgeStyle" elbow="vertical" curved="1" rounded="0" parent="1" source="yJT84olHIid9umdN5sDE-16" target="yJT84olHIid9umdN5sDE-48">
            <mxGeometry width="60" relative="1" as="geometry" />
          </mxCell>
        </object>
        <object tags="NA NA" id="yJT84olHIid9umdN5sDE-105">
          <mxCell edge="1" html="1" verticalAlign="bottom" startArrow="oval" startFill="1" endArrow="block" startSize="8" exitX="1" exitY="0.5" exitDx="0" exitDy="0" entryX="0" entryY="0.5" entryDx="0" entryDy="0" edgeStyle="orthogonalEdgeStyle" elbow="vertical" curved="1" rounded="0" parent="1" source="yJT84olHIid9umdN5sDE-17" target="yJT84olHIid9umdN5sDE-49">
            <mxGeometry width="60" relative="1" as="geometry" />
          </mxCell>
        </object>
        <object tags="NA NA" id="yJT84olHIid9umdN5sDE-106">
          <mxCell edge="1" html="1" verticalAlign="bottom" startArrow="oval" startFill="1" endArrow="block" startSize="8" exitX="1" exitY="0.5" exitDx="0" exitDy="0" entryX="0" entryY="0.5" entryDx="0" entryDy="0" edgeStyle="orthogonalEdgeStyle" elbow="vertical" curved="1" rounded="0" parent="1" source="yJT84olHIid9umdN5sDE-18" target="yJT84olHIid9umdN5sDE-50">
            <mxGeometry width="60" relative="1" as="geometry" />
          </mxCell>
        </object>
        <object tags="NA NA" id="yJT84olHIid9umdN5sDE-107">
          <mxCell edge="1" html="1" verticalAlign="bottom" startArrow="oval" startFill="1" endArrow="block" startSize="8" exitX="1" exitY="0.5" exitDx="0" exitDy="0" entryX="0" entryY="0.5" entryDx="0" entryDy="0" edgeStyle="orthogonalEdgeStyle" elbow="vertical" curved="1" rounded="0" parent="1" source="yJT84olHIid9umdN5sDE-19" target="yJT84olHIid9umdN5sDE-51">
            <mxGeometry width="60" relative="1" as="geometry" />
          </mxCell>
        </object>
        <object tags="NA NA" id="yJT84olHIid9umdN5sDE-108">
          <mxCell edge="1" html="1" verticalAlign="bottom" startArrow="oval" startFill="1" endArrow="block" startSize="8" exitX="1" exitY="0.5" exitDx="0" exitDy="0" entryX="0" entryY="0.5" entryDx="0" entryDy="0" edgeStyle="orthogonalEdgeStyle" elbow="vertical" curved="1" rounded="0" parent="1" source="yJT84olHIid9umdN5sDE-20" target="yJT84olHIid9umdN5sDE-52">
            <mxGeometry width="60" relative="1" as="geometry" />
          </mxCell>
        </object>
        <object tags="NA NA" id="yJT84olHIid9umdN5sDE-109">
          <mxCell edge="1" html="1" verticalAlign="bottom" startArrow="oval" startFill="1" endArrow="block" startSize="8" exitX="1" exitY="0.5" exitDx="0" exitDy="0" entryX="0" entryY="0.5" entryDx="0" entryDy="0" edgeStyle="orthogonalEdgeStyle" elbow="vertical" curved="1" rounded="0" parent="1" source="yJT84olHIid9umdN5sDE-21" target="yJT84olHIid9umdN5sDE-53">
            <mxGeometry width="60" relative="1" as="geometry" />
          </mxCell>
        </object>
        <object tags="NA NA" id="yJT84olHIid9umdN5sDE-110">
          <mxCell edge="1" html="1" verticalAlign="bottom" startArrow="oval" startFill="1" endArrow="block" startSize="8" exitX="1" exitY="0.5" exitDx="0" exitDy="0" entryX="0" entryY="0.5" entryDx="0" entryDy="0" edgeStyle="orthogonalEdgeStyle" elbow="vertical" curved="1" rounded="0" parent="1" source="yJT84olHIid9umdN5sDE-22" target="yJT84olHIid9umdN5sDE-54">
            <mxGeometry width="60" relative="1" as="geometry" />
          </mxCell>
        </object>
        <object tags="NA NA" id="yJT84olHIid9umdN5sDE-111">
          <mxCell edge="1" html="1" verticalAlign="bottom" startArrow="oval" startFill="1" endArrow="block" startSize="8" exitX="1" exitY="0.5" exitDx="0" exitDy="0" entryX="0" entryY="0.5" entryDx="0" entryDy="0" edgeStyle="orthogonalEdgeStyle" elbow="vertical" curved="1" rounded="0" parent="1" source="yJT84olHIid9umdN5sDE-23" target="yJT84olHIid9umdN5sDE-55">
            <mxGeometry width="60" relative="1" as="geometry" />
          </mxCell>
        </object>
        <object tags="NA NA" id="yJT84olHIid9umdN5sDE-112">
          <mxCell edge="1" html="1" verticalAlign="bottom" startArrow="oval" startFill="1" endArrow="block" startSize="8" exitX="1" exitY="0.5" exitDx="0" exitDy="0" entryX="0" entryY="0.5" entryDx="0" entryDy="0" edgeStyle="orthogonalEdgeStyle" elbow="vertical" curved="1" rounded="0" parent="1" source="yJT84olHIid9umdN5sDE-24" target="yJT84olHIid9umdN5sDE-56">
            <mxGeometry width="60" relative="1" as="geometry" />
          </mxCell>
        </object>
        <object tags="NA NA" id="yJT84olHIid9umdN5sDE-113">
          <mxCell edge="1" html="1" verticalAlign="bottom" startArrow="oval" startFill="1" endArrow="block" startSize="8" exitX="1" exitY="0.5" exitDx="0" exitDy="0" entryX="0" entryY="0.5" entryDx="0" entryDy="0" edgeStyle="orthogonalEdgeStyle" elbow="vertical" curved="1" rounded="0" parent="1" source="yJT84olHIid9umdN5sDE-25" target="yJT84olHIid9umdN5sDE-57">
            <mxGeometry width="60" relative="1" as="geometry" />
          </mxCell>
        </object>
        <object tags="NA NA" id="yJT84olHIid9umdN5sDE-114">
          <mxCell edge="1" html="1" verticalAlign="bottom" startArrow="oval" startFill="1" endArrow="block" startSize="8" exitX="1" exitY="0.5" exitDx="0" exitDy="0" entryX="0" entryY="0.5" entryDx="0" entryDy="0" edgeStyle="orthogonalEdgeStyle" elbow="vertical" curved="1" rounded="0" parent="1" source="yJT84olHIid9umdN5sDE-25" target="yJT84olHIid9umdN5sDE-58">
            <mxGeometry width="60" relative="1" as="geometry" />
          </mxCell>
        </object>
        <object tags="NA NA" id="yJT84olHIid9umdN5sDE-115">
          <mxCell edge="1" html="1" verticalAlign="bottom" startArrow="oval" startFill="1" endArrow="block" startSize="8" exitX="1" exitY="0.5" exitDx="0" exitDy="0" entryX="0" entryY="0.5" entryDx="0" entryDy="0" edgeStyle="orthogonalEdgeStyle" elbow="vertical" curved="1" rounded="0" parent="1" source="yJT84olHIid9umdN5sDE-25" target="yJT84olHIid9umdN5sDE-59">
            <mxGeometry width="60" relative="1" as="geometry" />
          </mxCell>
        </object>
        <object tags="NA NA" id="yJT84olHIid9umdN5sDE-116">
          <mxCell edge="1" html="1" verticalAlign="bottom" startArrow="oval" startFill="1" endArrow="block" startSize="8" exitX="1" exitY="0.5" exitDx="0" exitDy="0" entryX="0" entryY="0.5" entryDx="0" entryDy="0" edgeStyle="orthogonalEdgeStyle" elbow="vertical" curved="1" rounded="0" parent="1" source="yJT84olHIid9umdN5sDE-26" target="yJT84olHIid9umdN5sDE-60">
            <mxGeometry width="60" relative="1" as="geometry" />
          </mxCell>
        </object>
        <object tags="NA NA" id="yJT84olHIid9umdN5sDE-117">
          <mxCell edge="1" html="1" verticalAlign="bottom" startArrow="oval" startFill="1" endArrow="block" startSize="8" exitX="1" exitY="0.5" exitDx="0" exitDy="0" entryX="0" entryY="0.5" entryDx="0" entryDy="0" edgeStyle="orthogonalEdgeStyle" elbow="vertical" curved="1" rounded="0" parent="1" source="yJT84olHIid9umdN5sDE-27" target="yJT84olHIid9umdN5sDE-61">
            <mxGeometry width="60" relative="1" as="geometry" />
          </mxCell>
        </object>
        <object tags="NA NA" id="yJT84olHIid9umdN5sDE-118">
          <mxCell edge="1" html="1" verticalAlign="bottom" startArrow="oval" startFill="1" endArrow="block" startSize="8" exitX="1" exitY="0.5" exitDx="0" exitDy="0" entryX="0" entryY="0.5" entryDx="0" entryDy="0" edgeStyle="orthogonalEdgeStyle" elbow="vertical" curved="1" rounded="0" parent="1" source="yJT84olHIid9umdN5sDE-27" target="yJT84olHIid9umdN5sDE-62">
            <mxGeometry width="60" relative="1" as="geometry" />
          </mxCell>
        </object>
        <object tags="NA NA" id="yJT84olHIid9umdN5sDE-119">
          <mxCell edge="1" html="1" verticalAlign="bottom" startArrow="oval" startFill="1" endArrow="block" startSize="8" exitX="1" exitY="0.5" exitDx="0" exitDy="0" entryX="0" entryY="0.5" entryDx="0" entryDy="0" edgeStyle="orthogonalEdgeStyle" elbow="vertical" curved="1" rounded="0" parent="1" source="yJT84olHIid9umdN5sDE-28" target="yJT84olHIid9umdN5sDE-63">
            <mxGeometry width="60" relative="1" as="geometry" />
          </mxCell>
        </object>
        <object tags="NA NA" id="yJT84olHIid9umdN5sDE-120">
          <mxCell edge="1" html="1" verticalAlign="bottom" startArrow="oval" startFill="1" endArrow="block" startSize="8" exitX="1" exitY="0.5" exitDx="0" exitDy="0" entryX="0" entryY="0.5" entryDx="0" entryDy="0" edgeStyle="orthogonalEdgeStyle" elbow="vertical" curved="1" rounded="0" parent="1" source="yJT84olHIid9umdN5sDE-32" target="yJT84olHIid9umdN5sDE-6">
            <mxGeometry width="60" relative="1" as="geometry" />
          </mxCell>
        </object>
        <object tags="NA NA" id="yJT84olHIid9umdN5sDE-121">
          <mxCell edge="1" html="1" verticalAlign="bottom" startArrow="oval" startFill="1" endArrow="block" startSize="8" exitX="1" exitY="0.5" exitDx="0" exitDy="0" entryX="0" entryY="0.5" entryDx="0" entryDy="0" edgeStyle="orthogonalEdgeStyle" elbow="vertical" curved="1" rounded="0" parent="1" source="yJT84olHIid9umdN5sDE-35" target="yJT84olHIid9umdN5sDE-7">
            <mxGeometry width="60" relative="1" as="geometry" />
          </mxCell>
        </object>
        <object tags="NA NA" id="yJT84olHIid9umdN5sDE-122">
          <mxCell edge="1" html="1" verticalAlign="bottom" startArrow="oval" startFill="1" endArrow="block" startSize="8" exitX="1" exitY="0.5" exitDx="0" exitDy="0" entryX="0" entryY="0.5" entryDx="0" entryDy="0" edgeStyle="orthogonalEdgeStyle" elbow="vertical" curved="1" rounded="0" parent="1" source="yJT84olHIid9umdN5sDE-35" target="yJT84olHIid9umdN5sDE-7">
            <mxGeometry width="60" relative="1" as="geometry" />
          </mxCell>
        </object>
        <object tags="NA NA" id="yJT84olHIid9umdN5sDE-123">
          <mxCell edge="1" html="1" verticalAlign="bottom" startArrow="oval" startFill="1" endArrow="block" startSize="8" exitX="1" exitY="0.5" exitDx="0" exitDy="0" entryX="0" entryY="0.5" entryDx="0" entryDy="0" edgeStyle="orthogonalEdgeStyle" elbow="vertical" curved="1" rounded="0" parent="1" source="yJT84olHIid9umdN5sDE-32" target="yJT84olHIid9umdN5sDE-8">
            <mxGeometry width="60" relative="1" as="geometry" />
          </mxCell>
        </object>
        <object tags="NA NA" id="yJT84olHIid9umdN5sDE-124">
          <mxCell edge="1" html="1" verticalAlign="bottom" startArrow="oval" startFill="1" endArrow="block" startSize="8" exitX="1" exitY="0.5" exitDx="0" exitDy="0" entryX="0" entryY="0.5" entryDx="0" entryDy="0" edgeStyle="orthogonalEdgeStyle" elbow="vertical" curved="1" rounded="0" parent="1" source="yJT84olHIid9umdN5sDE-38" target="yJT84olHIid9umdN5sDE-9">
            <mxGeometry width="60" relative="1" as="geometry" />
          </mxCell>
        </object>
        <object tags="NA NA" id="yJT84olHIid9umdN5sDE-125">
          <mxCell edge="1" html="1" verticalAlign="bottom" startArrow="oval" startFill="1" endArrow="block" startSize="8" exitX="1" exitY="0.5" exitDx="0" exitDy="0" entryX="0" entryY="0.5" entryDx="0" entryDy="0" edgeStyle="orthogonalEdgeStyle" elbow="vertical" curved="1" rounded="0" parent="1" source="yJT84olHIid9umdN5sDE-36" target="yJT84olHIid9umdN5sDE-9">
            <mxGeometry width="60" relative="1" as="geometry" />
          </mxCell>
        </object>
        <object tags="NA NA" id="yJT84olHIid9umdN5sDE-126">
          <mxCell edge="1" html="1" verticalAlign="bottom" startArrow="oval" startFill="1" endArrow="block" startSize="8" exitX="1" exitY="0.5" exitDx="0" exitDy="0" entryX="0" entryY="0.5" entryDx="0" entryDy="0" edgeStyle="orthogonalEdgeStyle" elbow="vertical" curved="1" rounded="0" parent="1" source="yJT84olHIid9umdN5sDE-38" target="yJT84olHIid9umdN5sDE-9">
            <mxGeometry width="60" relative="1" as="geometry" />
          </mxCell>
        </object>
        <object tags="NA NA" id="yJT84olHIid9umdN5sDE-127">
          <mxCell edge="1" html="1" verticalAlign="bottom" startArrow="oval" startFill="1" endArrow="block" startSize="8" exitX="1" exitY="0.5" exitDx="0" exitDy="0" entryX="0" entryY="0.5" entryDx="0" entryDy="0" edgeStyle="orthogonalEdgeStyle" elbow="vertical" curved="1" rounded="0" parent="1" source="yJT84olHIid9umdN5sDE-36" target="yJT84olHIid9umdN5sDE-9">
            <mxGeometry width="60" relative="1" as="geometry" />
          </mxCell>
        </object>
        <object tags="NA NA" id="yJT84olHIid9umdN5sDE-128">
          <mxCell edge="1" html="1" verticalAlign="bottom" startArrow="oval" startFill="1" endArrow="block" startSize="8" exitX="1" exitY="0.5" exitDx="0" exitDy="0" entryX="0" entryY="0.5" entryDx="0" entryDy="0" edgeStyle="orthogonalEdgeStyle" elbow="vertical" curved="1" rounded="0" parent="1" source="yJT84olHIid9umdN5sDE-29" target="yJT84olHIid9umdN5sDE-10">
            <mxGeometry width="60" relative="1" as="geometry" />
          </mxCell>
        </object>
        <object tags="NA NA" id="yJT84olHIid9umdN5sDE-129">
          <mxCell edge="1" html="1" verticalAlign="bottom" startArrow="oval" startFill="1" endArrow="block" startSize="8" exitX="1" exitY="0.5" exitDx="0" exitDy="0" entryX="0" entryY="0.5" entryDx="0" entryDy="0" edgeStyle="orthogonalEdgeStyle" elbow="vertical" curved="1" rounded="0" parent="1" source="yJT84olHIid9umdN5sDE-31" target="yJT84olHIid9umdN5sDE-10">
            <mxGeometry width="60" relative="1" as="geometry" />
          </mxCell>
        </object>
        <object tags="NA NA" id="yJT84olHIid9umdN5sDE-130">
          <mxCell edge="1" html="1" verticalAlign="bottom" startArrow="oval" startFill="1" endArrow="block" startSize="8" exitX="1" exitY="0.5" exitDx="0" exitDy="0" entryX="0" entryY="0.5" entryDx="0" entryDy="0" edgeStyle="orthogonalEdgeStyle" elbow="vertical" curved="1" rounded="0" parent="1" source="yJT84olHIid9umdN5sDE-36" target="yJT84olHIid9umdN5sDE-10">
            <mxGeometry width="60" relative="1" as="geometry" />
          </mxCell>
        </object>
        <object tags="NA NA" id="yJT84olHIid9umdN5sDE-131">
          <mxCell edge="1" html="1" verticalAlign="bottom" startArrow="oval" startFill="1" endArrow="block" startSize="8" exitX="1" exitY="0.5" exitDx="0" exitDy="0" entryX="0" entryY="0.5" entryDx="0" entryDy="0" edgeStyle="orthogonalEdgeStyle" elbow="vertical" curved="1" rounded="0" parent="1" source="yJT84olHIid9umdN5sDE-36" target="yJT84olHIid9umdN5sDE-11">
            <mxGeometry width="60" relative="1" as="geometry" />
          </mxCell>
        </object>
        <object tags="NA NA" id="yJT84olHIid9umdN5sDE-132">
          <mxCell edge="1" html="1" verticalAlign="bottom" startArrow="oval" startFill="1" endArrow="block" startSize="8" exitX="1" exitY="0.5" exitDx="0" exitDy="0" entryX="0" entryY="0.5" entryDx="0" entryDy="0" edgeStyle="orthogonalEdgeStyle" elbow="vertical" curved="1" rounded="0" parent="1" source="yJT84olHIid9umdN5sDE-41" target="yJT84olHIid9umdN5sDE-11">
            <mxGeometry width="60" relative="1" as="geometry" />
          </mxCell>
        </object>
        <object tags="NA NA" id="yJT84olHIid9umdN5sDE-133">
          <mxCell edge="1" html="1" verticalAlign="bottom" startArrow="oval" startFill="1" endArrow="block" startSize="8" exitX="1" exitY="0.5" exitDx="0" exitDy="0" entryX="0" entryY="0.5" entryDx="0" entryDy="0" edgeStyle="orthogonalEdgeStyle" elbow="vertical" curved="1" rounded="0" parent="1" source="yJT84olHIid9umdN5sDE-29" target="yJT84olHIid9umdN5sDE-11">
            <mxGeometry width="60" relative="1" as="geometry" />
          </mxCell>
        </object>
        <object tags="NA NA" id="yJT84olHIid9umdN5sDE-134">
          <mxCell edge="1" html="1" verticalAlign="bottom" startArrow="oval" startFill="1" endArrow="block" startSize="8" exitX="1" exitY="0.5" exitDx="0" exitDy="0" entryX="0" entryY="0.5" entryDx="0" entryDy="0" edgeStyle="orthogonalEdgeStyle" elbow="vertical" curved="1" rounded="0" parent="1" source="yJT84olHIid9umdN5sDE-42" target="yJT84olHIid9umdN5sDE-12">
            <mxGeometry width="60" relative="1" as="geometry" />
          </mxCell>
        </object>
        <object tags="NA NA" id="yJT84olHIid9umdN5sDE-135">
          <mxCell edge="1" html="1" verticalAlign="bottom" startArrow="oval" startFill="1" endArrow="block" startSize="8" exitX="1" exitY="0.5" exitDx="0" exitDy="0" entryX="0" entryY="0.5" entryDx="0" entryDy="0" edgeStyle="orthogonalEdgeStyle" elbow="vertical" curved="1" rounded="0" parent="1" source="yJT84olHIid9umdN5sDE-42" target="yJT84olHIid9umdN5sDE-12">
            <mxGeometry width="60" relative="1" as="geometry" />
          </mxCell>
        </object>
        <object tags="NA NA" id="yJT84olHIid9umdN5sDE-136">
          <mxCell edge="1" html="1" verticalAlign="bottom" startArrow="oval" startFill="1" endArrow="block" startSize="8" exitX="1" exitY="0.5" exitDx="0" exitDy="0" entryX="0" entryY="0.5" entryDx="0" entryDy="0" edgeStyle="orthogonalEdgeStyle" elbow="vertical" curved="1" rounded="0" parent="1" source="yJT84olHIid9umdN5sDE-32" target="yJT84olHIid9umdN5sDE-13">
            <mxGeometry width="60" relative="1" as="geometry" />
          </mxCell>
        </object>
        <object tags="NA NA" id="yJT84olHIid9umdN5sDE-137">
          <mxCell edge="1" html="1" verticalAlign="bottom" startArrow="oval" startFill="1" endArrow="block" startSize="8" exitX="1" exitY="0.5" exitDx="0" exitDy="0" entryX="0" entryY="0.5" entryDx="0" entryDy="0" edgeStyle="orthogonalEdgeStyle" elbow="vertical" curved="1" rounded="0" parent="1" source="yJT84olHIid9umdN5sDE-43" target="yJT84olHIid9umdN5sDE-13">
            <mxGeometry width="60" relative="1" as="geometry" />
          </mxCell>
        </object>
        <object tags="NA NA" id="yJT84olHIid9umdN5sDE-138">
          <mxCell edge="1" html="1" verticalAlign="bottom" startArrow="oval" startFill="1" endArrow="block" startSize="8" exitX="1" exitY="0.5" exitDx="0" exitDy="0" entryX="0" entryY="0.5" entryDx="0" entryDy="0" edgeStyle="orthogonalEdgeStyle" elbow="vertical" curved="1" rounded="0" parent="1" source="yJT84olHIid9umdN5sDE-39" target="yJT84olHIid9umdN5sDE-13">
            <mxGeometry width="60" relative="1" as="geometry" />
          </mxCell>
        </object>
        <object tags="NA NA" id="yJT84olHIid9umdN5sDE-139">
          <mxCell edge="1" html="1" verticalAlign="bottom" startArrow="oval" startFill="1" endArrow="block" startSize="8" exitX="1" exitY="0.5" exitDx="0" exitDy="0" entryX="0" entryY="0.5" entryDx="0" entryDy="0" edgeStyle="orthogonalEdgeStyle" elbow="vertical" curved="1" rounded="0" parent="1" source="yJT84olHIid9umdN5sDE-32" target="yJT84olHIid9umdN5sDE-14">
            <mxGeometry width="60" relative="1" as="geometry" />
          </mxCell>
        </object>
        <object tags="NA NA" id="yJT84olHIid9umdN5sDE-140">
          <mxCell edge="1" html="1" verticalAlign="bottom" startArrow="oval" startFill="1" endArrow="block" startSize="8" exitX="1" exitY="0.5" exitDx="0" exitDy="0" entryX="0" entryY="0.5" entryDx="0" entryDy="0" edgeStyle="orthogonalEdgeStyle" elbow="vertical" curved="1" rounded="0" parent="1" source="yJT84olHIid9umdN5sDE-45" target="yJT84olHIid9umdN5sDE-14">
            <mxGeometry width="60" relative="1" as="geometry" />
          </mxCell>
        </object>
        <object tags="NA NA" id="yJT84olHIid9umdN5sDE-141">
          <mxCell edge="1" html="1" verticalAlign="bottom" startArrow="oval" startFill="1" endArrow="block" startSize="8" exitX="1" exitY="0.5" exitDx="0" exitDy="0" entryX="0" entryY="0.5" entryDx="0" entryDy="0" edgeStyle="orthogonalEdgeStyle" elbow="vertical" curved="1" rounded="0" parent="1" source="yJT84olHIid9umdN5sDE-46" target="yJT84olHIid9umdN5sDE-15">
            <mxGeometry width="60" relative="1" as="geometry" />
          </mxCell>
        </object>
        <object tags="NA NA" id="yJT84olHIid9umdN5sDE-142">
          <mxCell edge="1" html="1" verticalAlign="bottom" startArrow="oval" startFill="1" endArrow="block" startSize="8" exitX="1" exitY="0.5" exitDx="0" exitDy="0" entryX="0" entryY="0.5" entryDx="0" entryDy="0" edgeStyle="orthogonalEdgeStyle" elbow="vertical" curved="1" rounded="0" parent="1" source="yJT84olHIid9umdN5sDE-43" target="yJT84olHIid9umdN5sDE-16">
            <mxGeometry width="60" relative="1" as="geometry" />
          </mxCell>
        </object>
        <object tags="NA NA" id="yJT84olHIid9umdN5sDE-143">
          <mxCell edge="1" html="1" verticalAlign="bottom" startArrow="oval" startFill="1" endArrow="block" startSize="8" exitX="1" exitY="0.5" exitDx="0" exitDy="0" entryX="0" entryY="0.5" entryDx="0" entryDy="0" edgeStyle="orthogonalEdgeStyle" elbow="vertical" curved="1" rounded="0" parent="1" source="yJT84olHIid9umdN5sDE-32" target="yJT84olHIid9umdN5sDE-16">
            <mxGeometry width="60" relative="1" as="geometry" />
          </mxCell>
        </object>
        <object tags="NA NA" id="yJT84olHIid9umdN5sDE-144">
          <mxCell edge="1" html="1" verticalAlign="bottom" startArrow="oval" startFill="1" endArrow="block" startSize="8" exitX="1" exitY="0.5" exitDx="0" exitDy="0" entryX="0" entryY="0.5" entryDx="0" entryDy="0" edgeStyle="orthogonalEdgeStyle" elbow="vertical" curved="1" rounded="0" parent="1" source="yJT84olHIid9umdN5sDE-43" target="yJT84olHIid9umdN5sDE-17">
            <mxGeometry width="60" relative="1" as="geometry" />
          </mxCell>
        </object>
        <object tags="NA NA" id="yJT84olHIid9umdN5sDE-145">
          <mxCell edge="1" html="1" verticalAlign="bottom" startArrow="oval" startFill="1" endArrow="block" startSize="8" exitX="1" exitY="0.5" exitDx="0" exitDy="0" entryX="0" entryY="0.5" entryDx="0" entryDy="0" edgeStyle="orthogonalEdgeStyle" elbow="vertical" curved="1" rounded="0" parent="1" source="yJT84olHIid9umdN5sDE-48" target="yJT84olHIid9umdN5sDE-17">
            <mxGeometry width="60" relative="1" as="geometry" />
          </mxCell>
        </object>
        <object tags="NA NA" id="yJT84olHIid9umdN5sDE-146">
          <mxCell edge="1" html="1" verticalAlign="bottom" startArrow="oval" startFill="1" endArrow="block" startSize="8" exitX="1" exitY="0.5" exitDx="0" exitDy="0" entryX="0" entryY="0.5" entryDx="0" entryDy="0" edgeStyle="orthogonalEdgeStyle" elbow="vertical" curved="1" rounded="0" parent="1" source="yJT84olHIid9umdN5sDE-47" target="yJT84olHIid9umdN5sDE-18">
            <mxGeometry width="60" relative="1" as="geometry" />
          </mxCell>
        </object>
        <object tags="NA NA" id="yJT84olHIid9umdN5sDE-147">
          <mxCell edge="1" html="1" verticalAlign="bottom" startArrow="oval" startFill="1" endArrow="block" startSize="8" exitX="1" exitY="0.5" exitDx="0" exitDy="0" entryX="0" entryY="0.5" entryDx="0" entryDy="0" edgeStyle="orthogonalEdgeStyle" elbow="vertical" curved="1" rounded="0" parent="1" source="yJT84olHIid9umdN5sDE-39" target="yJT84olHIid9umdN5sDE-18">
            <mxGeometry width="60" relative="1" as="geometry" />
          </mxCell>
        </object>
        <object tags="NA NA" id="yJT84olHIid9umdN5sDE-148">
          <mxCell edge="1" html="1" verticalAlign="bottom" startArrow="oval" startFill="1" endArrow="block" startSize="8" exitX="1" exitY="0.5" exitDx="0" exitDy="0" entryX="0" entryY="0.5" entryDx="0" entryDy="0" edgeStyle="orthogonalEdgeStyle" elbow="vertical" curved="1" rounded="0" parent="1" source="yJT84olHIid9umdN5sDE-45" target="yJT84olHIid9umdN5sDE-18">
            <mxGeometry width="60" relative="1" as="geometry" />
          </mxCell>
        </object>
        <object tags="NA NA" id="yJT84olHIid9umdN5sDE-149">
          <mxCell edge="1" html="1" verticalAlign="bottom" startArrow="oval" startFill="1" endArrow="block" startSize="8" exitX="1" exitY="0.5" exitDx="0" exitDy="0" entryX="0" entryY="0.5" entryDx="0" entryDy="0" edgeStyle="orthogonalEdgeStyle" elbow="vertical" curved="1" rounded="0" parent="1" source="yJT84olHIid9umdN5sDE-43" target="yJT84olHIid9umdN5sDE-18">
            <mxGeometry width="60" relative="1" as="geometry" />
          </mxCell>
        </object>
        <object tags="NA NA" id="yJT84olHIid9umdN5sDE-150">
          <mxCell edge="1" html="1" verticalAlign="bottom" startArrow="oval" startFill="1" endArrow="block" startSize="8" exitX="1" exitY="0.5" exitDx="0" exitDy="0" entryX="0" entryY="0.5" entryDx="0" entryDy="0" edgeStyle="orthogonalEdgeStyle" elbow="vertical" curved="1" rounded="0" parent="1" source="yJT84olHIid9umdN5sDE-50" target="yJT84olHIid9umdN5sDE-19">
            <mxGeometry width="60" relative="1" as="geometry" />
          </mxCell>
        </object>
        <object tags="NA NA" id="yJT84olHIid9umdN5sDE-151">
          <mxCell edge="1" html="1" verticalAlign="bottom" startArrow="oval" startFill="1" endArrow="block" startSize="8" exitX="1" exitY="0.5" exitDx="0" exitDy="0" entryX="0" entryY="0.5" entryDx="0" entryDy="0" edgeStyle="orthogonalEdgeStyle" elbow="vertical" curved="1" rounded="0" parent="1" source="yJT84olHIid9umdN5sDE-47" target="yJT84olHIid9umdN5sDE-19">
            <mxGeometry width="60" relative="1" as="geometry" />
          </mxCell>
        </object>
        <object tags="NA NA" id="yJT84olHIid9umdN5sDE-152">
          <mxCell edge="1" html="1" verticalAlign="bottom" startArrow="oval" startFill="1" endArrow="block" startSize="8" exitX="1" exitY="0.5" exitDx="0" exitDy="0" entryX="0" entryY="0.5" entryDx="0" entryDy="0" edgeStyle="orthogonalEdgeStyle" elbow="vertical" curved="1" rounded="0" parent="1" source="yJT84olHIid9umdN5sDE-50" target="yJT84olHIid9umdN5sDE-20">
            <mxGeometry width="60" relative="1" as="geometry" />
          </mxCell>
        </object>
        <object tags="NA NA" id="yJT84olHIid9umdN5sDE-153">
          <mxCell edge="1" html="1" verticalAlign="bottom" startArrow="oval" startFill="1" endArrow="block" startSize="8" exitX="1" exitY="0.5" exitDx="0" exitDy="0" entryX="0" entryY="0.5" entryDx="0" entryDy="0" edgeStyle="orthogonalEdgeStyle" elbow="vertical" curved="1" rounded="0" parent="1" source="yJT84olHIid9umdN5sDE-47" target="yJT84olHIid9umdN5sDE-20">
            <mxGeometry width="60" relative="1" as="geometry" />
          </mxCell>
        </object>
        <object tags="NA NA" id="yJT84olHIid9umdN5sDE-154">
          <mxCell edge="1" html="1" verticalAlign="bottom" startArrow="oval" startFill="1" endArrow="block" startSize="8" exitX="1" exitY="0.5" exitDx="0" exitDy="0" entryX="0" entryY="0.5" entryDx="0" entryDy="0" edgeStyle="orthogonalEdgeStyle" elbow="vertical" curved="1" rounded="0" parent="1" source="yJT84olHIid9umdN5sDE-46" target="yJT84olHIid9umdN5sDE-21">
            <mxGeometry width="60" relative="1" as="geometry" />
          </mxCell>
        </object>
        <object tags="NA NA" id="yJT84olHIid9umdN5sDE-155">
          <mxCell edge="1" html="1" verticalAlign="bottom" startArrow="oval" startFill="1" endArrow="block" startSize="8" exitX="1" exitY="0.5" exitDx="0" exitDy="0" entryX="0" entryY="0.5" entryDx="0" entryDy="0" edgeStyle="orthogonalEdgeStyle" elbow="vertical" curved="1" rounded="0" parent="1" source="yJT84olHIid9umdN5sDE-44" target="yJT84olHIid9umdN5sDE-22">
            <mxGeometry width="60" relative="1" as="geometry" />
          </mxCell>
        </object>
        <object tags="NA NA" id="yJT84olHIid9umdN5sDE-156">
          <mxCell edge="1" html="1" verticalAlign="bottom" startArrow="oval" startFill="1" endArrow="block" startSize="8" exitX="1" exitY="0.5" exitDx="0" exitDy="0" entryX="0" entryY="0.5" entryDx="0" entryDy="0" edgeStyle="orthogonalEdgeStyle" elbow="vertical" curved="1" rounded="0" parent="1" source="yJT84olHIid9umdN5sDE-45" target="yJT84olHIid9umdN5sDE-22">
            <mxGeometry width="60" relative="1" as="geometry" />
          </mxCell>
        </object>
        <object tags="NA NA" id="yJT84olHIid9umdN5sDE-157">
          <mxCell edge="1" html="1" verticalAlign="bottom" startArrow="oval" startFill="1" endArrow="block" startSize="8" exitX="1" exitY="0.5" exitDx="0" exitDy="0" entryX="0" entryY="0.5" entryDx="0" entryDy="0" edgeStyle="orthogonalEdgeStyle" elbow="vertical" curved="1" rounded="0" parent="1" source="yJT84olHIid9umdN5sDE-45" target="yJT84olHIid9umdN5sDE-23">
            <mxGeometry width="60" relative="1" as="geometry" />
          </mxCell>
        </object>
        <object tags="NA NA" id="yJT84olHIid9umdN5sDE-158">
          <mxCell edge="1" html="1" verticalAlign="bottom" startArrow="oval" startFill="1" endArrow="block" startSize="8" exitX="1" exitY="0.5" exitDx="0" exitDy="0" entryX="0" entryY="0.5" entryDx="0" entryDy="0" edgeStyle="orthogonalEdgeStyle" elbow="vertical" curved="1" rounded="0" parent="1" source="yJT84olHIid9umdN5sDE-49" target="yJT84olHIid9umdN5sDE-23">
            <mxGeometry width="60" relative="1" as="geometry" />
          </mxCell>
        </object>
        <object tags="NA NA" id="yJT84olHIid9umdN5sDE-159">
          <mxCell edge="1" html="1" verticalAlign="bottom" startArrow="oval" startFill="1" endArrow="block" startSize="8" exitX="1" exitY="0.5" exitDx="0" exitDy="0" entryX="0" entryY="0.5" entryDx="0" entryDy="0" edgeStyle="orthogonalEdgeStyle" elbow="vertical" curved="1" rounded="0" parent="1" source="yJT84olHIid9umdN5sDE-45" target="yJT84olHIid9umdN5sDE-24">
            <mxGeometry width="60" relative="1" as="geometry" />
          </mxCell>
        </object>
        <object tags="NA NA" id="yJT84olHIid9umdN5sDE-160">
          <mxCell edge="1" html="1" verticalAlign="bottom" startArrow="oval" startFill="1" endArrow="block" startSize="8" exitX="1" exitY="0.5" exitDx="0" exitDy="0" entryX="0" entryY="0.5" entryDx="0" entryDy="0" edgeStyle="orthogonalEdgeStyle" elbow="vertical" curved="1" rounded="0" parent="1" source="yJT84olHIid9umdN5sDE-49" target="yJT84olHIid9umdN5sDE-24">
            <mxGeometry width="60" relative="1" as="geometry" />
          </mxCell>
        </object>
        <object tags="NA NA" id="yJT84olHIid9umdN5sDE-161">
          <mxCell edge="1" html="1" verticalAlign="bottom" startArrow="oval" startFill="1" endArrow="block" startSize="8" exitX="1" exitY="0.5" exitDx="0" exitDy="0" entryX="0" entryY="0.5" entryDx="0" entryDy="0" edgeStyle="orthogonalEdgeStyle" elbow="vertical" curved="1" rounded="0" parent="1" source="yJT84olHIid9umdN5sDE-51" target="yJT84olHIid9umdN5sDE-25">
            <mxGeometry width="60" relative="1" as="geometry" />
          </mxCell>
        </object>
        <object tags="NA NA" id="yJT84olHIid9umdN5sDE-162">
          <mxCell edge="1" html="1" verticalAlign="bottom" startArrow="oval" startFill="1" endArrow="block" startSize="8" exitX="1" exitY="0.5" exitDx="0" exitDy="0" entryX="0" entryY="0.5" entryDx="0" entryDy="0" edgeStyle="orthogonalEdgeStyle" elbow="vertical" curved="1" rounded="0" parent="1" source="yJT84olHIid9umdN5sDE-47" target="yJT84olHIid9umdN5sDE-25">
            <mxGeometry width="60" relative="1" as="geometry" />
          </mxCell>
        </object>
        <object tags="NA NA" id="yJT84olHIid9umdN5sDE-163">
          <mxCell edge="1" html="1" verticalAlign="bottom" startArrow="oval" startFill="1" endArrow="block" startSize="8" exitX="1" exitY="0.5" exitDx="0" exitDy="0" entryX="0" entryY="0.5" entryDx="0" entryDy="0" edgeStyle="orthogonalEdgeStyle" elbow="vertical" curved="1" rounded="0" parent="1" source="yJT84olHIid9umdN5sDE-53" target="yJT84olHIid9umdN5sDE-26">
            <mxGeometry width="60" relative="1" as="geometry" />
          </mxCell>
        </object>
        <object tags="NA NA" id="yJT84olHIid9umdN5sDE-164">
          <mxCell edge="1" html="1" verticalAlign="bottom" startArrow="oval" startFill="1" endArrow="block" startSize="8" exitX="1" exitY="0.5" exitDx="0" exitDy="0" entryX="0" entryY="0.5" entryDx="0" entryDy="0" edgeStyle="orthogonalEdgeStyle" elbow="vertical" curved="1" rounded="0" parent="1" source="yJT84olHIid9umdN5sDE-52" target="yJT84olHIid9umdN5sDE-27">
            <mxGeometry width="60" relative="1" as="geometry" />
          </mxCell>
        </object>
        <object tags="NA NA" id="yJT84olHIid9umdN5sDE-165">
          <mxCell edge="1" html="1" verticalAlign="bottom" startArrow="oval" startFill="1" endArrow="block" startSize="8" exitX="1" exitY="0.5" exitDx="0" exitDy="0" entryX="0" entryY="0.5" entryDx="0" entryDy="0" edgeStyle="orthogonalEdgeStyle" elbow="vertical" curved="1" rounded="0" parent="1" source="yJT84olHIid9umdN5sDE-45" target="yJT84olHIid9umdN5sDE-28">
            <mxGeometry width="60" relative="1" as="geometry" />
          </mxCell>
        </object>
      </root>
    </mxGraphModel>
  </diagram>
</mxfile>
